<svg xmlns="http://www.w3.org/2000/svg" viewBox="0 0 128 120">
<!-- SVG created with Arrow, by QuiverAI (https://quiver.ai) -->
  <style type="text/css">.cls-0 {fill:#DEE7FC;}
.cls-1 {fill:#9BCCFA;}
.cls-2 {fill:#74C0FC;}
.cls-3 {fill:#B1D6F9;}
.cls-4 {fill:#74B7F9;}
.cls-5 {fill:#77B7F9;}
.cls-6 {fill:#76D1FC;}
.cls-7 {fill:#A8DDFC;}
.cls-8 {fill:#DCF8FF;}
.cls-9 {fill:#8DD4FC;}
.cls-10 {fill:#60ACEF;}
.cls-11 {fill:#C4E6FD;}
.cls-12 {fill:#A2CDF8;}
.cls-13 {fill:#C0E2FC;}
.cls-14 {fill:#E1F6FF;}
.cls-15 {fill:#DAEDFD;}
.cls-16 {fill:#DFE8FF;}
.cls-17 {fill:#7DC1F9;}
.cls-18 {fill:#79C2FC;}
.cls-19 {fill:#74B7F7;}
.cls-20 {fill:#A2D5FC;}
.cls-21 {fill:#819CF4;}
.cls-22 {fill:#C6B3FC;}
.cls-23 {fill:#936DE2;}
.cls-24 {fill:#AD87EA;}
.cls-25 {fill:#CEB5FC;}
.cls-26 {fill:#FFFFFF;}
.cls-27 {fill:#543FA1;}
.cls-28 {fill:#303BB4;}
.cls-29 {fill:#4664A5;}
.cls-30 {fill:#6991EB;}
.cls-31 {fill:#B69FFC;}
.cls-32 {fill:#D8C1FC;}
.cls-33 {fill:#F8F3FF;}
.cls-34 {fill:#EEDCFC;}
.cls-35 {fill:#BE9CFB;}
.cls-36 {fill:#2960AF;}
.cls-37 {fill:#041338;}
.cls-38 {fill:#102767;}
.cls-39 {fill:#081543;}
.cls-40 {fill:#C2A4F7;}
.cls-41 {fill:#D6BBFB;}
.cls-42 {fill:#EAE6FB;}
.cls-43 {fill:#453891;}
.cls-44 {fill:#FEFEFF;}
.cls-45 {fill:#6B97F3;}
.cls-46 {fill:#C4F0FF;}
.cls-47 {fill:#E1F3FF;}
.cls-48 {fill:#CCE7FD;}
.cls-49 {fill:#759EF5;}
.cls-50 {fill:#C3B1FB;}
.cls-51 {fill:#D7C3FB;}
.cls-52 {fill:#FDFCFF;}
.cls-53 {fill:#C5B1FA;}
.cls-54 {fill:#B396F7;}
.cls-55 {fill:#6960C4;}
.cls-56 {fill:#FEFFFF;}
.cls-57 {fill:#6CA1F6;}
.cls-58 {fill:#CCE4FD;}
.cls-59 {fill:#77ADFB;}
.cls-60 {fill:#D2D0FC;}
.cls-61 {fill:#281955;}
.cls-62 {fill:#332C8C;}
.cls-63 {fill:#77A2FB;}
.cls-64 {fill:#A994F5;}
.cls-65 {fill:#D0B5FD;}
.cls-66 {fill:#B999F9;}
.cls-67 {fill:#FEFDFE;}
.cls-68 {fill:#C1A3FB;}
.cls-69 {fill:#8486EB;}
.cls-70 {fill:#4483D3;}
.cls-71 {fill:#DFEEFE;}
.cls-72 {fill:#D3E9FE;}
.cls-73 {fill:#6887E8;}
.cls-74 {fill:#AF91F4;}
.cls-75 {fill:#D4B7FD;}
.cls-76 {fill:#C9B0FB;}
.cls-77 {fill:#E4DEFF;}
.cls-78 {fill:#ECE9FE;}</style>
  <path class="cls-0" d="m65.4 5.6c-21.1 0-48 11.4-48.1 43.3-1.2 5.4-8.3 4-9.8 13.1-0.5 12.7 2.5 15.6 4.1 16.6 5.8 4.5 9.4 5.4 11.6 9.8 3.7 7.5 9.1 15.4 17.8 21.3 6.2 3.7 14.1 7.4 23.5 7.4 15.3 0 31.4-7.7 39.5-24.1 3.6-7.1 2.9-6.1 9.7-11.6 3.7-2.6 6.7-5.8 6.7-14.9 0.2-14.3-7.8-11.5-8.3-17.6-0.4-5.6-1.5-13.2-3.4-18.1-3.8-8.4-11.7-20.8-32.8-24.4-3.8-0.6-7.2-0.8-10.5-0.8z"/>
  <path class="cls-1" d="m13.4 0.1c-7.4 0-11.6 4.4-12.1 10.3-0.3 3.2-0.1 15.4-0.1 16.4 0.2 5 7.7 5.8 8.8 1 0.5-2.4-0.1-7 0.1-14.9 0.3-2.3 2.3-3.4 3.8-3.4h12.4c3.1 0 5.7-0.7 5.7-4.6 0-1.9-1.3-4.5-4.2-4.7-2.4-0.2-5.7-0.1-14.4-0.1z"/>
  <path class="cls-2" d="m1.3 10.4 1.7 0.7c0.7-2.7 1-4.2 1-4.4 0.1-1.1 3.3-3.2 2.3-3.1-1.5 0.3-2.4 0.7-3 1.3-1.1 1.5-1.8 3.4-2 5.5z"/>
  <path class="cls-3" d="m18.9 2.3c-4.1 0.1-11.6-0.9-14.9 6.1-1.2 3.1-0.7 7-0.7 17 0.1 2.5 1.2 1.5 1.2 0 0-8.9-1.2-19.4 8.6-21 3.8-0.6 11.7 0.1 13.8-0.5 2.3-0.5 2-1.4-2.4-1.5l-5.6-0.1z"/>
  <path class="cls-4" d="m1.2 10.9c-0.3 3.6-0.1 14.7 0 16.4l1.3 0.1v-16.4l-1.3-0.1z"/>
  <path class="cls-5" d="m13 7.6c-2.6 0.3-4 2.4-4.4 5v13.8c0 1.7-0.2 2.5-1.3 3.2l1.6 0.4c0.7-0.6 1.1-1.5 1.2-2.6 0.3-2.5-0.2-6 0-14.5 0.1-1.8 1.9-3 2.5-3.2l-0.1-1.1 0.8-0.1-0.3-0.9z"/>
  <path class="cls-6" d="m1.3 107.9c0.4 4.2 3.8 9 9.2 10 3.4 0.7 6.6 0.7 8.9 0.6 3 0 7.5 0.4 9.5-0.4 3.2-1.2 3.6-4.5 2.2-6.7-1.1-1.4-2.1-1.9-5.7-1.8-7-0.2-8.4 0.4-12.3-0.2-2.5-0.4-3.1-2.4-3.3-4.5v-11.9c0-2.5-1.4-4.1-4.3-4.4-2.7 0-4.6 1.9-4.3 7 0.2 4.3-0.3 8.3 0.1 12.3z"/>
  <path class="cls-7" d="m3 92.9-0.1 13.1c0 2.6 1.6 6.6 2.1 6.9 0.5 0.2 2.9 3 7.9 3.7l14.9 0.2 1.2 1.1 1.7-2.3 0.3-2.6-0.5-0.4c-2.4 0-1.8-1-6.1-1l-11.8 0.3-2.8-1.8-0.8-3.2-0.2-13.4c0-1.9-0.7-2.4-2.7-2.6-1.1-0.1-2.5-0.5-3.1 2z"/>
  <path class="cls-8" d="m19.1 45c-0.1 2.4 1.3 3.8 2.3 1.5 0.6-1.6 0.6-7.6 3.5-14.9 2-3.8 4.7-8 8.2-8.8l6.5-5.8c-3.1 0.1-7.9 3-8.6 3-1.4 1.1-6.1 5.8-6.4 6.4-1.1 2.2-3.7 5-4.8 12.1-0.7 3.6-0.7 4.4-0.7 6.5z"/>
  <path class="cls-9" d="m24 46.5c0.9-9.5 4.4-15 7.1-18.9 4.3-5.6 11.8-12.5 25-15.5-8 0.4-14.7 3.8-17.5 5-2 0.9-8.2 5.5-8.7 5.9s-5 6.4-6.8 11.4c-1.2 3.7-2 7.6-2 12.5l-1.3 1.1 1.8-0.2 1 1.8 1.4-3.1z"/>
  <path class="cls-10" d="m7.5 63.8 0.9-1.8h0.7l0.8-2 1.2 1v10.5l2.3 4-0.3 2.4-2-0.4c-1.5-1.5-3.3-5.4-3.6-13.7z"/>
  <path class="cls-11" d="m12.1 64.8c-0.2 6.2 1.3 10.3 2.9 12.2l2.5 2.1 3 1.9 0.9-1.1-4.8-19.3 0.4-3.2c-0.6-1.8-4.6 2.1-4.9 7.4z"/>
  <path class="cls-12" d="m9.6 60.5c-0.5 7.4-0.5 11.4 0.4 12.4l0.4-0.5 0.2 0.5c1 0 0.5-2.1 0.8-2.3v-9.5l-0.3-0.3-1.1-0.8-0.4 0.5z"/>
  <path class="cls-13" d="m8.1 64.5c-0.2 1.1 0 3.4 0 3.4 0.5-1 0.3-3.8 0-3.4z"/>
  <path class="cls-14" d="m4.4 28.5c-0.9 0.5 0.2 0.6 1.7 0.5s2.8-1.6 1-2.1c-1 0.5-0.2 1.2-2.7 1.6z"/>
  <path class="cls-15" d="m28 7.1c0 0.7 1.5-0.2 1.4-0.5-0.4-0.5-1.4 0.3-1.4 0.5z"/>
  <path class="cls-16" d="m10.8 112.5c0.3 0.9 5.6 0.9 14.7 0.8 3.1 0 2-1.4-1-1.3-5.9 0.4-14.6-0.4-13.7 0.5z"/>
  <path class="cls-13" d="m8.6 115.5c0.5 0.1 3.3 1.1 4.8 1.4h14.4c0.1 1.7 1.8 1.2 1.2 0.7l1.4-1.6-0.5-0.1c0.5-1.3-0.9-1.3-1.3-0.9-2.5 1-2.6 1-7.2 0.9h-9.9c-1.6-0.4-3-0.9-2.9-0.4z"/>
  <path class="cls-17" d="m12.5 110 11.5 0.4v-0.3l5.9 0.3-1-0.8c-1.8-0.5-4.3-0.1-8.8-0.2-6 0.2-7.7-0.3-8.6 0.6h1z"/>
  <path class="cls-18" d="m12.6 110.4 2.4 0.1c0.5-0.1-2.2-0.5-2.4-0.1z"/>
  <path class="cls-19" d="m41 109.9 0.4-0.3c1-0.2 3.7 1 3.2 0.9l-0.2-0.4c1.1 0.4-2.4-2.7-0.4-2l4.4 1.5 0.1-0.2c-4.4-2.3-12.4-5.8-17.9-15h-3.7c3.6 6 9.3 12.2 14.1 15.5z"/>
  <path class="cls-20" d="m51.1 114.9c0.9 0.5 3.4 1 3.3 0.7l-0.3-0.2 0.4-0.3c-0.5-0.5-3.1-0.7-3.4-0.2z"/>
  <path class="cls-2" d="m45.4 111.1 2.5 1.8h0.5l-1.3-1 2 1v-0.3l-3.1-1.5h-0.6z"/>
  <path class="cls-18" d="m43.5 108.1c0 1 1.9 3.3 3 3.3l-0.4-0.5c1.9-0.9-1.5-2.5-2.6-2.8z"/>
  <path class="cls-18" d="m43.1 108.1c0.9 0.8 4 2.8 4.4 2.4-0.4-0.6-3.5-2.9-4.4-2.4z"/>
  <path class="cls-18" d="m46.1 110.5 2 0.9 2 0.6c1.3-0.1-3.6-2.4-4-1.5z"/>
  <path class="cls-2" d="m47.1 109.9 1.4 0.7 2.9 1.3v-0.3l-2.4-2.2-1.9 0.5z"/>
  <path class="cls-21" d="m38 13c0.9 1 1.4 0.4 5.6-1.4 0.9 0-0.5 0.5-0.2 0.5 5.1-2.1 10.6-3.7 16.1-4.1 10.6-0.6 15 0.4 17.1 0.6 4.3 0.5 10.9 3.4 11 3.4-0.5-1 2.5-2.4-2.5-3.6-3-1-6.6-1.8-9.5-2v0.2c-7.2-0.2-13.7-1.1-20.2 0.3-6.3 0.5-13.3 3.1-17.4 6.1z"/>
  <path class="cls-22" d="m96 5c0.4 3.4 2 4.4 6.5 4.5 5.1 0.1 8-0.4 11.6 0 2.4 0.5 3.5 1.1 3.8 3.6v13.4c0 2.1 1.1 4 4.7 4 2.9 0 4.3-1.9 4.3-3.9v-14.1c0-5.1-4-12-11.5-12.4l-13.9-0.1c-2.5 0-5 1.4-5.5 5z"/>
  <path class="cls-23" d="m97.1 4.6c-0.5 0.5 0.4 3 1.3 3.3l0.6 0.6h0.5c1.1 0.5 9.9 0 15.5 0.1l2.6 0.5 1.3 1.8 0.2 1.6 0.3 0.1v15.3c0 2.2 4.6 3.7 7.1 1l0.4-0.9c-0.4 1-0.4 2.5-3.3 2.5-3 0.4-5.6-1-5.7-3.5v-14.6l-1-2.4-2.8-0.5-12.6-0.1c-3.1 0-5.4-0.8-5.5-4.5l1.1-0.3z"/>
  <path class="cls-24" d="m98.4 4.6c1 0.8 0.1 2.3-0.9 1.8l-0.4-1.4c-0.1-0.9 0.5 0 1.3-0.4z"/>
  <path class="cls-25" d="m99 7.4c-0.4 1.1 2.4 0.7 8.9 0.7 5.7 0 7.6-0.2 9.5 0.8l1.5 2 0.5 0.1-0.4 0.5 0.4 1.1v15.3c0.2 2.5 4.2 3.2 7.1 0.5v-15.8c-1-5-4.4-10.5-12-10.2-3 0-13.6-0.3-14.6 0-1 0.5-1.9 1.7-1.5 2.2l0.6 2.8z"/>
  <path class="cls-24" d="m116.6 2c2.9 0.6 5.3 2.1 6.9 4.5 1.1 0.6-0.9-5.1-6.9-4.5z"/>
  <path class="cls-26" d="m123.1 28.9c-0.6 1.6 2-1 1.5-2.3-0.7-0.5-1.2 1.3-1.5 2.3z"/>
  <path class="cls-27" d="m97.5 16.9c1.6 2.2 9.4 7.2 12.1 21.6l1.5 9.5 1 3 5.4 3.9c-2 1.5 0.4 1.2-1.4 2.6l-1.1 0.9-2.6 1.6-2.8-3.9-2.2-3.1-0.9 0.1 0.4-5.7 3-0.4c0.2-6.5-2.5-22.6-12.4-30.1z"/>
  <path class="cls-28" d="m53.1 66.4c-5-3.5-4-10.3 3.4-11.4l1.9 1.6c2.1 3.4 1.7 7.3-0.3 10.4-1.2 0.6-3.7 0.5-5-0.6z"/>
  <path class="cls-29" d="m58.4 56.6c-3.5-4.7-9.4-6.7-15.5-5-2.4 0.8-5.3 2.2-6.9 4.5-2.9 4-3.1 5.9-1 10.3l1.6 2h0.4c-1-0.8-3.1-4-3.1-6.3 0.1-5.5 5.7-10.1 13-10.3 4.7-0.2 7.7 1.6 9.2 3.1-3.7 0.5-6.1 3-6.1 6.1 0 3 2.4 6.4 6.4 6.4h1.7c0.3-1.3-2.7 2.5 0.3-1-1 0.5-1.5-0.8-1.9-1l1.9-1.8 1 0.4c0.5-2.6 0.2-5.1-1-7.4z"/>
  <path class="cls-26" d="m37 68.4c2.4 1.6 3.9 3 8.1 3.5 4.8 0.6 9.5-1 12-3.5l0.5-1.3c-3 0.8-7.6-1.5-7.6-6 0-2.6 2.4-5.7 6.1-6.2-1.7-1.5-4.7-3.3-9.1-3.1-6.5 0.1-12.9 3.8-13.1 10.2 0 1.9 1.6 5.5 3.1 6.4z"/>
  <path class="cls-30" d="m52.1 59c0 1.1 1.3 1.4 1.5 1.4l1.9-1.9c-0.6-2.5-3.1-0.6-3.4 0.5z"/>
  <path class="cls-31" d="m96 114"/>
  <path class="cls-24" d="m118 90.1c-1.5 1.9-0.1 16.8-1 17.9l-0.6 1.1-1.4 0.4 1.6 1.5 8.5 2.4c2.3-3.3 2-7.8 1.9-10.4v-10c-0.4-5.1-6.4-6-9-2.9z"/>
  <path class="cls-25" d="m99.6 118.4c2 0.5 13 0.2 16.8 0 3.6-0.5 7.2-2 9-5.5l-0.4-1.3-1.1 0.3-2.5 2.5-4.9 1.7-16.4 0.8-2.2-1.9-1.3-1c0 2.4 1.9 4.1 3 4.4z"/>
  <path class="cls-24" d="m96 113.9 1-0.3 1-1.5 0.4-1 1.5-0.6 14.7-0.4 3.3-0.5-1.3-1-1.2 0.5c-1.5 0.4-3 0.4-4.5 0.3h-9.8c-3.1 0-5 1.6-5.1 4.5z"/>
  <path class="cls-25" d="m96.6 114c1.3 0.9 0.3 0.1 2.4-0.6 2-1.5 6.4-1.3 14.9-1.3 3 0 5.2-1.5 4.5-2.1l-0.9-0.1-0.9 0.2c-1.7 0.4-4.1 0.3-13.6 0.3-4.4 0-5.9 0.7-6.4 3.6z"/>
  <path class="cls-25" d="m98 114.4c0 2.7 1.9 4 2.1 4v-1l0.3-0.4c0.7 0.1 13.7 0.4 16.6-0.4 2.4-0.6 5.1-1.5 7.5-3.6l0.6-0.5v-0.6c-0.5-1.3-2 1.1-3.5 2.1l-3.5 1.5-3.1 0.5-13.6 0.1-2.8-0.2 0.3 0.1-0.9-0.6v-1z"/>
  <path class="cls-32" d="m98.4 114.4c0.6 2.2 2.7 2 11.2 2 4.8 0 10.3 0.2 13.5-4.8 1.3-2.2 2.3-2.2 2.3-10.5 0-5.5 0.5-9.5-1.3-10.1-1.5-0.5-3.6-0.1-3.7 2.5-0.5 7.6 1 14.4-2 16.4-1.5 1.7-3.8 2-5 2-7.4 0.2-15.5-1.3-15 2.5z"/>
  <path class="cls-26" d="m98.9 113.6c0.1 1 2.2-0.5 2-1-0.4-0.7-2-0.2-2 1z"/>
  <path class="cls-33" d="m106.9 86c2.6-2 5.5-4 7.2-5.4-2.5 0-0.5-1.5-2-1.6l0.5-0.5-1.2 0.1 4-1.2h1.2c-1-2.4 3.5-3.3 3-9-0.6 0-0.2-5.9-0.7-6.3-0.5-0.5 0-2.5-1.9-2.5-1.6-0.2-0.4 0.9-1.1 0.9l-0.9-0.5-2.9-3.4-0.2-0.5-1.3-0.1-0.5-0.4-1.2-2-1.5 0.4-0.3 0.6 0.3 7-1.5 13.9-3.9 9.1-0.4 1 0.9 1.3-1 1.1-1 0.4 0.1 0.7-0.6 0.4c-0.6 3.6-3.9 8-4.6 9.5l-4 4.9-6.4 4.5-2.1 1.6c1.6-0.4 3.7-0.9 6-2.1l2.7-1.5c3.4-1 7-6.5 8.5-8.8 2-2.6 4.4-8 4.4-8 1.4-1.7 0-3.7 2.4-3.6z"/>
  <path class="cls-34" d="m79.1 113.9 0.3 0.2c2.1-0.1 9.1-4 10.6-6.2-0.4-0.8-3.1 1.7-6.4 1.7l5.4-3.2-6.1 3.2-3.8 2.3v2z"/>
  <path class="cls-35" d="m107.1 85.6 3-2h-1.7c-1-0.1-1.3 2-1.3 2z"/>
  <path class="cls-4" d="m24.6 82.6 2.3 0.9 2 3.1c2 5.8 7.2 13.9 12.5 17.9-2.3 0-7.9-4.6-10.9-9-1.1-1.1-5.1-6.4-7-9.9l1.1-3z"/>
  <path class="cls-36" d="m22.5 84 1.9 1c0.7-1.5 1.5-1.1 1.7-0.6l0.3-1.3 1 0.5-0.3 3-2.5-0.2-1 1.5c-0.6-0.8-0.2-1.5 0-2l-0.5-0.5v0.5l-0.6-1.9z"/>
  <path class="cls-37" d="m18 47.1-1.1 8.5h0.5l0.7-3.5 0.5 0.4c0.5 3 1.3 1.4 3.8-0.1l0.1-3-1-2-2.4 0.5-0.6-0.5-0.5 1.5v-1.8z"/>
  <path class="cls-38" d="m18.9 48.1 0.2 2.3 0.8 0.6 0.5 0.6-0.3 1.9h0.3l1.1-1.4 0.6-0.2 0.4 0.2v-2.7l-1-1-1.4 1v-1.5l-0.7-0.3-0.5 0.5z"/>
  <path class="cls-39" d="m106.9 47.4c-1 0.2 0.5 1.5 0.1 5.7l0.6-0.5 0.9 1 1.5 0.4 1.1 1.6 1.4-3.5-1.6-3.2-0.4-0.3-0.4 0.3 0.4 0.5-1.1 0.2-0.3-1-0.6-0.7-1.6-0.5z"/>
  <path class="cls-40" d="m109.4 54 1.1 0.4 0.6 1.2 1 0.5c0.4 3.9-1.1 20.9-4.1 25-1.6 1.8-1.5 5.8-1.9 5 0-1.1 0.9-3.6-0.6-2.5-1.5 1.3-2 2-2.9 0.3l1.4-0.4 2.5-2.5 3.4-10.4 0.7-14-1.2-2.6z"/>
  <path class="cls-41" d="m112.1 56.5 2.9 2.1c1.5 2 2.5 13.3-1.4 18l1.9 0.8-1.4 0.1-1-0.1-1 1.1 1 0.6-0.5 1.5-1.2 0.9 0.7-1.5-0.5-1.4-1.2 0.4-1.3 0.9-0.7 1.1-0.4 1.4 0.4 1.2h-0.8l-0.5-0.7 1.3-2.3c1.1-1.7 3.2-16 3.7-24.1z"/>
  <path class="cls-42" d="m112.1 57 2.3 2.5 1.7 3-0.7-1-0.5-0.6 0.1 0.7c-0.5-1-0.9-2.2-1.9-2.6l-1-0.6v-1.4z"/>
  <path class="cls-43" d="m102.9 81.6 0.7 0.5c0.9-1 1.9-1.5 2.3-1.6l2.1-6.9-1.4 3.3 0.5-2.8-2.1 5.4-2.1 2.1z"/>
  <path class="cls-44" d="m123.9 10.9v15c0.6 1.6 0.7-3.8 0.6-11.9 0-2.5-0.4-3.6-0.6-3.1z"/>
  <path class="cls-45" d="m38.4 14.6c-0.8 0.8 0.7-0.1-3.3 1.4l0.3 0.5 0.7-0.4 0.4 0.3c2-1.3 0.5 0.6-0.1 1.1-0.4 1.4 0 1.1 1.7 0.1 2.5-1.5 2.5-0.6 2.3-0.5 6.7-3.5 14.5-6.1 23.6-6.1-5.9 0.4-9.5 1.4-11.6 2-3.4 0.9-7.3 1.9-11.8 4.4l-0.7-0.5-1.9 1 1.5-1.4-1.1-1.9z"/>
  <path class="cls-46" d="m32.6 18.9-1.1 2.5c1.1 0 6.5-2.9 6.5-2.9-0.4 0.9-3.5 2.5-4.6 3.9l-2.5 0.7-1.5 1.5-1.5 2 2-1.2 0.7 0.2-2.6 1.3-0.1 0.5 1.6-1 1-1-1.4 2.1c-0.2 2 1.5-0.5 1.9-0.9l7.6-7.5-0.5-1.1-4.2 1.5c-2.4 0.1 0-2-1.3-0.6z"/>
  <path class="cls-18" d="m27.6 28-1.7 2.5-1 1.1-0.4 1.3 0.1 0.1 2.3-3.6 0.6-0.8 0.4 0.3-0.3 0.5 0.8-0.9-0.3 0.9 0.4-0.9 0.5 0.9c-1.6 2.1-2.9 5.2-3 5.6-0.6 0-1 1.9-1 1.9l-0.5-0.4-1.6 6.5c-0.3 4.6-1 2.5 0-3 0.7-3.1 3.6-9.4 4.7-11v-1z"/>
  <path class="cls-47" d="m18 55.6c-0.9 0.9-0.1 10.4 0.9 15.5 1.7 7.9 3 11.4 2.7 8.8l-2.7-11.5-0.4-6.9c0-4.6 0.5-6.6-0.5-5.9z"/>
  <path class="cls-48" d="m22.4 56.6c-0.5 4 0.6 13 0.5 8.9 0.6-1-0.5-7.6 0.1-9.9l-0.6 1z"/>
  <path class="cls-49" d="m38 13 0.6 0.4 5-1.9c2.8-1 6.3-2.5 7.8-2.4v-0.5c-2.8-0.6-9.8 2.3-13.4 4.4z"/>
  <path class="cls-50" d="m55.5 7 0.6 0.4c6-0.5 11.3-0.8 16.8 0.5l2.7 0.1v-1.4c-5.1-1.1-12.2-1-18.2 0l0.6 0.3-2.5 0.2v-0.1z"/>
  <path class="cls-51" d="m84 9.5v0.5l4.1 1.9c1.8 1.1 8.8 4.7 9 6.2-1.5-0.2-2.5-2.5-9.5-5.7l-3.7-1.5-4-1.4-4.3-1v-1.9c2.9 0.4 7.9 1.8 9.4 2.4l-1 0.5z"/>
  <path class="cls-52" d="m121 28c-1.6 0.5 1.6 2 2.1 1.4l-0.1-1.5-2 0.1z"/>
  <path class="cls-53" d="m119.1 108.6 1-0.1c0.4 1.9-3.5 4.5-3.2 3.5-0.5 0 0.5-1.1 2.2-3.4z"/>
  <path class="cls-54" d="m119.1 91.6c-0.1 1-0.1 14.3-0.7 16.5v0.4l-0.3 0.6 0.5-0.1c1.3-2.1 1-4.5 1.3-14.9 0-2.5 0.6-2.6 2.2-3.6l-1.2 1-1.8 0.1z"/>
  <path class="cls-55" d="m118.1 106.9v-14.3c0.3-1.7 2.3-3.1 1.5-3l-0.5 0.8-0.7 0.1-0.3 1.1-0.2 0.4v14.5l0.2 0.4z"/>
  <path class="cls-56" d="m22.4 81.5c0 2 1.2 2 1.1 1.6l-0.5-1.5-0.6-0.1z"/>
  <path class="cls-57" d="m20.4 53.6c0.7 1.4 1.1 4.4-0.4 9.9 0.5 4.4 2.1 15.5 3.5 16.6l2 2.4c-1.5-5.1-4.1-16.9-3-25.9 0.5-1.2 0-4.7-0.1-4.2l-2 1.2z"/>
  <path class="cls-58" d="m15.1 78 1 0.1c0.8 1.4 5.5 4.4 4.4 5-1.4-0.7-3-1.2-3.4-0.7l-3.7-2.4v-0.9l1.7-0.1v-1z"/>
  <path class="cls-10" d="m9.9 74.5c0.2 1.1 2.2 3.6 2.2 3.6l1.3-1.1-2.3-1.1-0.1-0.3 0.9-0.1h1.2l0.3-0.5v-0.5l0.7 1.6-0.1 1.3-1.1-0.4-1.3 0.5-0.5-0.5v0.6l0.5 0.8c-1-0.8-2.2-3.4-2.5-4l0.8 0.1z"/>
  <path class="cls-9" d="m14.1 78.9c1.3 0.2 1.5 0.1 1.9-0.8l-0.5-0.5c-1.1 0.3-1.4 1.3-1.4 1.3z"/>
  <path class="cls-6" d="m9.5 58h0.6l0.5-1.1 0.5-0.3 0.3 0.8 1.2 0.1 0.3 0.5-0.4 0.9h0.5l0.4-0.5c1.2-1.4 3-2.5 3.5-2.5 0.1-1-0.4-1.9-0.3-3v-1.3l-1.7 1.3 0.1 0.2c-3.1 1.5-3.4 1.5-4.1 2.5l-1.4 2.4z"/>
  <path class="cls-36" d="m9.1 58 0.4 0.4 0.6-1.4 1-1.4v-0.2l0.3 0.1-0.3 0.1c1 1.3-0.6 1-0.5 1.8l-1 1-0.1 1 1.9 0.6-0.3 0.4 0.3 0.2 0.2-0.1 0.5-0.1 0.4-1 0.1-0.5h-0.2l0.2-0.4-0.5-1-1-0.1-0.5-0.8-1.5 1.4z"/>
  <path class="cls-59" d="m24 49.1-1.1 1.4v3l-0.4 3.1 0.5 9.3 0.6 7.1 1.9 9.5h1.6l-0.2-1.5c-1.3-2.4-3.8-14.1-3.3-25l0.4-6.9z"/>
  <path class="cls-60" d="m116.5 28"/>
  <path class="cls-61" d="m96.9 112.9 1-0.8v-0.6l-1 1.4z"/>
  <path class="cls-62" d="m113.6 76.4 0.3 0.1 0.6 0.4 0.1 0.5c-0.1 0.5-1 0-1-0.4l-0.2-0.1 0.2-0.5z"/>
  <path class="cls-63" d="m12.6 8.5v0.9h1c3-0.4 13 0.1 14.9 0l1.5-0.4-0.6-0.9-1.5 0.4h-15.3z"/>
  <path class="cls-64" d="m48.4 109.4-1 0.2c-1-0.2-3.8-2.5-4-1.1l3.5 1.9 0.6-0.3 1 0.3 6.9 2.6c6.1 1 14.5 1.9 22.5-1.4l3-1.5-1.3 0.3c-7 2.7-17.6 4.6-27.2 0.5l-4-1.5z"/>
  <path class="cls-65" d="m108.9 77.9 2.2-3.9c1.3-2.4 2-2.1 0.8-4.1-0.3-0.9 0.7-2.4-0.4-3.4l2-1.5-0.9-2-0.5 0.4v4.6l-3.2 9.9z"/>
  <path class="cls-66" d="m115 58.4 1.6-1 0.3-0.9h0.1l-0.1-0.4v-0.1l-0.3-0.4 0.9-0.6c1.9 2 2.6 4.5 2.9 7.1v6l-0.5 4.3h-0.4l-0.1 0.2c-0.8 2.4-1.9 4.4-2.8 5.3l-0.1-1.3h-0.4l1.3-1.5-0.9 1-0.4 0.5v0.3h0.3l0.1 0.1-0.4 0.4h-0.6l-1-0.5 2.4-2.8c1.7-2.1 2.7-3.2 2.7-7l-0.2-4.5-0.3-0.5-0.2-1.2-0.5 0.1v-0.6l-0.8-0.8h-1.1l-0.4 0.4v0.5l-0.7-0.5-0.4-1.6z"/>
  <path class="cls-67" d="m109.9 38.5 1.2 9.1v0.4l-0.2 0.4-0.3-0.5 0.3-1.3-0.3-4.2-0.1 0.1-0.6-4z"/>
  <path class="cls-68" d="m106.9 80.9 4-2.4 2.5-1.9 1.2-5.1h-0.2l-0.5 2.1-1.4 2.4-1.9 1.9 1.5-1.5 0.4-0.9-0.6 0.9-5 4.5z"/>
  <path class="cls-69" d="m110.1 55.6h0.8l0.2-3 1.5 1.4-0.7-1-0.3-1.4-0.7 0.8-0.3 3.2h-0.5z"/>
  <path class="cls-70" d="m17.1 46-0.2 3.5 1-2.1v-0.5l-0.8-0.9z"/>
  <path class="cls-46" d="m24 36.4c-0.9 0.5-1.6 8-1.5 9.6 0.6 0.5 0.9-7 2.1-9.6h-0.6z"/>
  <path class="cls-71" d="m3.5 93.9c0.9-0.4 3.1-2.9 1-2.8-0.9 0.4-1.6 1.8-1 2.8z"/>
  <path class="cls-72" d="m23.9 87.6 3.5 6.8h0.2l-0.1 0.1c1.4 2.1 5 6.5 6.4 6.6-0.8-1.6-6-9.6-6.9-14.5l-2.1-0.2c-1 0.1-1.3 0.7-1 1.2z"/>
  <path class="cls-73" d="m84.5 14.5 2.6 1.1h0.5l-0.1-0.2c0.4-0.4 1.6 0 1.4 0.2l-0.5 0.3 3.2 0.7h0.5l-0.5-0.1 1 0.4-0.5 0.2 1.5-0.2-0.5 0.2c1.4-0.2 1.5-0.6 3 1h0.3l-6.3-4.2-2.2-1.4-5.8-2.1 2.4 4.1z"/>
  <path class="cls-34" d="m94.5 17.6-3.8-0.1c0.9 0.4 7.7 4.6 9.3 7l2.4 1.9-0.9-3.5-1.1-2.3-0.5 0.8-5.4-3.8z"/>
  <path class="cls-74" d="m99.9 89.9c-4.4 8.7-12.8 18.2-24.4 21.5l3.6-0.9c2.8-0.9 10.3-4.6 13-8l2.3-1.6 1.1-1.5v-0.4l1.9-2 2.5-4.5c0.6-1.4 0.6-3.6 0-2.6z"/>
  <path class="cls-75" d="m109.4 55.6c-0.9 0.8 0.1 12.5-1.8 18.5l-1.1 6 1.6-1.7 2-9.5 1.3-12.9-0.8-1-1.2 0.6z"/>
  <path class="cls-76" d="m107.1 54.6v7.4l-0.5 7.6-0.6 4.9-1.6 5.5 1.5 0.5 0.7-3.9 0.8-1.2 1.5-4.5 0.5-13.5c0.1-2.5 1.2-1.5 1.2-2.4l-1.5-1-0.7-0.4-1.3 1z"/>
  <path class="cls-77" d="m98.4 19c0.1 1 1.1 2.1 1.1 2.1 0.4-0.1-1.6-2.6-1.1-2.1z"/>
  <path class="cls-78" d="m107.9 81c0.7-1.1 3-11.9 3-12.1-0.5 1-2 10.1-3 12.1z"/>
  <path class="cls-33" d="m111.1 56.5c0 7.1-1.1 14-1.7 14l0.7-14h1z"/>
  <path class="cls-26" d="m98.4 64.6 0.6-3c0.4 0.8-0.4 3.5-0.6 3z"/>
  <path class="cls-26" d="m85.5 51.6c-3.9 0-7.5 1.4-9.5 3.4-1.4 1.1-3.1 3.4-3.1 6.6 0 4 3.5 10.3 12.6 10.3 6.1 0 11.1-3.4 12.9-8.8l-1.9-8.1c-1.9-2-5.9-3.4-11-3.4z"/>
  <path class="cls-27" d="m96.5 55.4c-5.4-0.8-9.9 4.7-6.5 9.6 1.4 1.6 2.9 2.5 5.5 2.4 2.4 0 2.9-3.8 2.9-6 0.1-2.5-1-4.8-1.9-6z"/>
  <path class="cls-28" d="m89.5 60.5 1 3.4 1.4 1.6 0.2 0.5 0.5-0.5 1.3 0.5h1.1c1.6 0.9 0.4-1.5-0.9-1.6l0.5-0.4-0.2-0.1 0.7-0.3v0.3l0.4-0.5 1-0.4c1.1-1 1.9-0.6 1.6-0.5 0.5-3.4-0.2-5.1-1.6-6.5-2.9 0.6-4.4-1-7 2.5v2z"/>
  <path class="cls-27" d="m89.5 60.5 0.5-2 0.4-0.5c1.5 2-0.5 1.5-0.4 3v0.1l0.4 0.5-0.4 0.9 0.5 1.5 1.4 1.6-0.3 0.4c-1.5-1.4-2.2-3.1-2.1-5.5z"/>
  <path class="cls-24" d="m106.9 47.1c2 0.4 2.6 2.3 2.6 2.3l0.9-0.5 0.7 2.1-0.5 0.4c-1.5-0.9-1.1 2.1-1.5 2.5l-1-0.4 0.4-1.9 1.4-0.2-0.8-2-0.2-0.9-0.8-0.6-1.2-0.8z"/>
  <path class="cls-26" d="m99.4 61.5"/>
  <path class="cls-26" d="m99 61.5"/>
  <path class="cls-27" d="m75 55.6h0.4c1.6-1.6 5-4.5 10.5-4.5 5 0 8.5 1.9 10.7 4.5-0.2 0.9-1.6 0-3 0.3-4.1 0.7-6.7 6.7-2.6 10.1-6.1-5.5 0.5-11.4 3.9-11l-0.3-0.4c-3-2.2-7.2-3.2-11.1-2.6-4.1 0.6-6.4 1.9-8.1 4l-0.4-0.4z"/>
  <path class="cls-27" d="m73.9 57 1.1-1c-3 3.5-2.5 8-1 10.4l-0.4-0.4c-1.5-2.9-1.1-7 0.3-9z"/>
  <path class="cls-35" d="m64.1 89.9 0.3 0.6 1 0.6c1.1 0.3 2-0.5 4.7 0 4.4-0.6 4.3-3.6 4.3-6.2l-0.5-10.8-0.3 0.9-0.1-3.5 0.4 1c-0.3-3-1.5-7.1-1.5-6.1-0.3 9.1 0.6 17.6-0.5 20.2l-1.8 1.4-7 0.5 1 1.4z"/>
  <path class="cls-69" d="m60 86.4c0.1 1.5 3.1 4.6 4.1 4.2v-0.2l1.3 0.7h1.1c-1.5-0.5-2.4-1.5-2.1-1.2l1 0.1c1.2 0.5 3.5 0.5 2.5 1 1.6 0.4 2.5-0.6 1.5-0.6l-3.3-0.4-3-1.5 6.8-0.4 0.7-0.1 1.3-1.4c0.7-1.6 1 1.5 1.2-9.1l0.3 8.6 0.6-3.2 0.4 3.7v-3.2l-0.4-9.3-0.1 0.4-0.3-3 0.3 1-1.5-6.1-0.3 0.5v6.1l0.4 9.9-0.4 3.7-2 1.4-2.5 0.1h-5.7l-1-0.5-0.9-1.2z"/>
  <path class="cls-26" d="m69.6 85.6c-0.1 0.9 1.8 0.5 1.8-1-0.5-1.6-1.8 0.5-1.8 1z"/>
  <path class="cls-34" d="m100.4 24.4-1.5-0.3 2.2 2.3 2.4 3.7-2.9-1.7 0.8 1.6 2.5 1 3.2 9 0.3 6 0.7 1.6 1.4-0.6 0.4-0.5c-0.5-8.9-3.4-17-7.8-23l-1.7 0.9z"/>
</svg>